<?xml version="1.0" encoding="UTF-8"?>
<svg id="Layer_1" data-name="Layer 1" xmlns="http://www.w3.org/2000/svg" xmlns:xlink="http://www.w3.org/1999/xlink" viewBox="0 0 380.01 213.99">
  <defs>
    <style>
      .cls-1 {
        clip-path: url(#clippath-20);
      }

      .cls-2 {
        clip-path: url(#clippath-11);
      }

      .cls-3 {
        clip-path: url(#clippath-16);
      }

      .cls-4 {
        fill: #fff;
      }

      .cls-5 {
        fill: #020203;
      }

      .cls-6 {
        clip-path: url(#clippath-2);
      }

      .cls-7 {
        clip-path: url(#clippath-13);
      }

      .cls-8 {
        clip-path: url(#clippath-25);
      }

      .cls-9 {
        clip-path: url(#clippath-15);
      }

      .cls-10 {
        clip-path: url(#clippath-6);
      }

      .cls-11 {
        clip-path: url(#clippath-26);
      }

      .cls-12 {
        clip-path: url(#clippath-7);
      }

      .cls-13 {
        clip-path: url(#clippath-21);
      }

      .cls-14 {
        clip-path: url(#clippath-1);
      }

      .cls-15 {
        clip-path: url(#clippath-4);
      }

      .cls-16 {
        clip-path: url(#clippath-27);
      }

      .cls-17 {
        clip-path: url(#clippath-12);
      }

      .cls-18 {
        clip-path: url(#clippath-24);
      }

      .cls-19 {
        fill: #eb1565;
      }

      .cls-20 {
        clip-path: url(#clippath-22);
      }

      .cls-21 {
        clip-path: url(#clippath-9);
      }

      .cls-22 {
        clip-path: url(#clippath);
      }

      .cls-23 {
        fill: none;
      }

      .cls-24 {
        clip-path: url(#clippath-19);
      }

      .cls-25 {
        clip-path: url(#clippath-3);
      }

      .cls-26 {
        clip-path: url(#clippath-8);
      }

      .cls-27 {
        clip-path: url(#clippath-18);
      }

      .cls-28 {
        clip-path: url(#clippath-14);
      }

      .cls-29 {
        clip-path: url(#clippath-17);
      }

      .cls-30 {
        clip-path: url(#clippath-5);
      }

      .cls-31 {
        clip-path: url(#clippath-10);
      }

      .cls-32 {
        clip-path: url(#clippath-23);
      }

      .cls-33 {
        fill: #231f20;
      }

      .cls-34 {
        clip-path: url(#clippath-28);
      }
    </style>
    <clipPath id="clippath">
      <rect class="cls-23" width="283.76" height="154.66"/>
    </clipPath>
    <clipPath id="clippath-1">
      <rect class="cls-23" width="283.76" height="154.66"/>
    </clipPath>
    <clipPath id="clippath-2">
      <rect class="cls-23" width="283.76" height="154.66"/>
    </clipPath>
    <clipPath id="clippath-3">
      <rect class="cls-23" width="283.76" height="154.66"/>
    </clipPath>
    <clipPath id="clippath-4">
      <rect class="cls-23" width="283.76" height="154.66"/>
    </clipPath>
    <clipPath id="clippath-5">
      <rect class="cls-23" width="283.76" height="154.66"/>
    </clipPath>
    <clipPath id="clippath-6">
      <rect class="cls-23" width="283.76" height="154.66"/>
    </clipPath>
    <clipPath id="clippath-7">
      <rect class="cls-23" width="283.76" height="154.66"/>
    </clipPath>
    <clipPath id="clippath-8">
      <rect class="cls-23" width="283.76" height="154.66"/>
    </clipPath>
    <clipPath id="clippath-9">
      <rect class="cls-23" width="283.76" height="154.66"/>
    </clipPath>
    <clipPath id="clippath-10">
      <rect class="cls-23" width="283.76" height="154.66"/>
    </clipPath>
    <clipPath id="clippath-11">
      <rect class="cls-23" width="283.76" height="154.66"/>
    </clipPath>
    <clipPath id="clippath-12">
      <rect class="cls-23" width="283.76" height="154.66"/>
    </clipPath>
    <clipPath id="clippath-13">
      <rect class="cls-23" width="283.76" height="154.66"/>
    </clipPath>
    <clipPath id="clippath-14">
      <rect class="cls-23" width="283.76" height="154.66"/>
    </clipPath>
    <clipPath id="clippath-15">
      <rect class="cls-23" width="283.76" height="154.66"/>
    </clipPath>
    <clipPath id="clippath-16">
      <rect class="cls-23" width="283.76" height="154.66"/>
    </clipPath>
    <clipPath id="clippath-17">
      <rect class="cls-23" width="283.76" height="154.66"/>
    </clipPath>
    <clipPath id="clippath-18">
      <rect class="cls-23" width="283.76" height="154.66"/>
    </clipPath>
    <clipPath id="clippath-19">
      <rect class="cls-23" width="283.76" height="154.66"/>
    </clipPath>
    <clipPath id="clippath-20">
      <rect class="cls-23" width="283.76" height="154.66"/>
    </clipPath>
    <clipPath id="clippath-21">
      <rect class="cls-23" width="283.76" height="154.66"/>
    </clipPath>
    <clipPath id="clippath-22">
      <rect class="cls-23" width="283.76" height="154.66"/>
    </clipPath>
    <clipPath id="clippath-23">
      <rect class="cls-23" width="283.76" height="154.66"/>
    </clipPath>
    <clipPath id="clippath-24">
      <rect class="cls-23" width="283.76" height="154.66"/>
    </clipPath>
    <clipPath id="clippath-25">
      <rect class="cls-23" width="283.76" height="154.66"/>
    </clipPath>
    <clipPath id="clippath-26">
      <rect class="cls-23" width="283.76" height="154.66"/>
    </clipPath>
    <clipPath id="clippath-27">
      <rect class="cls-23" width="283.76" height="154.66"/>
    </clipPath>
    <clipPath id="clippath-28">
      <rect class="cls-23" width="283.76" height="154.66"/>
    </clipPath>
  </defs>
  <rect class="cls-23" width="380.01" height="213.99"/>
  <g class="cls-22">
    <g>
      <g class="cls-14">
        <rect class="cls-19" width="95.45" height="95.45"/>
      </g>
      <g class="cls-6">
        <path class="cls-5" d="M204.71,74.91h0c22.61,0,40.91-18.3,40.91-40.91v-13.64h-6.73v13.64c0,18.81-15.19,34-34,34.18V20.54h-6.73v54.72h6.73v-.34h-.17Z"/>
      </g>
      <g class="cls-25">
        <path class="cls-5" d="M87.16,7.08v6.73c-11.91,0-21.92,8.98-23.47,20.37h-6.73c1.73-15.36,14.5-27.27,30.21-27.1"/>
      </g>
      <g class="cls-15">
        <path class="cls-5" d="M88.89,27.62v-6.9c-.52,0-1.21-.17-1.73-.17-9.49,0-17.09,7.6-17.09,17.09,0,3.62,1.04,6.9,2.93,9.67,1.38,2.24,2.24,4.66,2.24,7.42,0,7.42-6.04,13.46-13.46,13.46s-13.46-6.04-13.46-13.46h-6.9c0,11.22,9.15,20.54,20.54,20.54s20.54-9.15,20.54-20.54c0-3.97-1.21-7.6-3.28-10.7h-.17c-.17-.35-.35-.69-.69-.86-.86-1.55-1.38-3.28-1.38-5.18,0-5.7,4.49-10.18,10.18-10.18,.52-.35,1.21-.35,1.73-.17"/>
      </g>
      <g class="cls-30">
        <rect class="cls-5" x="95.45" width="95.45" height="95.45"/>
      </g>
      <g class="cls-10">
        <polygon class="cls-5" points="235.26 103.74 232.16 123.59 239.23 123.59 239.58 121.34 235.09 121.34 236.12 114.61 240.09 114.61 240.44 112.37 236.47 112.37 237.51 106.15 241.99 106.15 242.34 103.91 235.26 103.91 235.26 103.74"/>
      </g>
      <g class="cls-12">
        <path class="cls-5" d="M229.39,103.74l-2.24,14.15c-.17,.86-.17,1.38-.35,1.9-.17,.52-.35,.86-.69,1.04-.35,.17-.69,.35-1.21,.35-.69,0-1.21-.35-1.73-.69l-.35,2.59c.52,.35,1.21,.52,2.24,.52,1.21,0,2.24-.35,2.93-1.04,.86-.86,1.38-2.24,1.73-4.14l2.42-14.84h-2.76v.17h0Z"/>
      </g>
      <g class="cls-26">
        <path class="cls-5" d="M211.79,123.59h2.59c.35-1.73,.52-3.45,.86-5.18,.17-1.73,.52-3.45,.69-5.01,.17-1.73,.35-3.28,.35-5.01l2.24,15.36h2.42l3.11-19.85h-2.59c-.35,1.73-.52,3.28-.69,4.66-.17,1.38-.35,2.42-.35,3.45s-.17,1.9-.35,2.93c0,1.04-.17,2.42-.35,3.97l-2.24-15.02h-2.42l-3.28,19.68Z"/>
      </g>
      <g class="cls-21">
        <polygon class="cls-5" points="205.75 103.74 202.64 123.59 209.72 123.59 210.06 121.34 205.57 121.34 206.61 114.61 210.58 114.61 210.93 112.37 206.95 112.37 207.99 106.15 212.48 106.15 212.82 103.91 205.75 103.91 205.75 103.74"/>
      </g>
      <g class="cls-31">
        <polygon class="cls-5" points="196.94 103.74 193.84 123.59 200.91 123.59 201.26 121.34 196.77 121.34 199.53 103.74 196.94 103.74"/>
      </g>
      <g class="cls-2">
        <polygon class="cls-5" points="187.79 103.74 184.69 123.59 191.76 123.59 192.11 121.34 187.62 121.34 188.66 114.61 192.63 114.61 192.97 112.37 189 112.37 190.04 106.15 194.53 106.15 194.87 103.91 187.79 103.91 187.79 103.74"/>
      </g>
      <g class="cls-17">
        <path class="cls-5" d="M176.92,123.59h2.07l7.08-19.85h-2.42c-.17,.52-.52,1.73-1.04,3.28s-1.04,3.11-1.55,4.49c-.52,1.38-.86,2.59-1.21,3.8-.35,1.21-.69,2.42-1.04,3.45l.17-14.84h-2.59l.52,19.68Z"/>
      </g>
      <g class="cls-7">
        <path class="cls-5" d="M167.08,112.71c.52-.69,.86-1.55,1.21-2.59,.17-1.04,.35-1.9,.35-2.76,0-1.21-.35-2.07-.86-2.76-.69-.52-1.55-.86-2.76-.86h-3.62l-3.11,19.85h2.59l1.55-9.66,2.07,9.66h2.76l-2.24-9.66c.86-.17,1.55-.52,2.07-1.21m-1.9-1.55c-.52,.86-1.38,1.38-2.59,1.38l1.04-6.56c.69,0,1.38,.17,1.73,.35,.35,.17,.52,.69,.52,1.55,0,1.21-.17,2.42-.69,3.28"/>
      </g>
      <g class="cls-28">
        <polygon class="cls-5" points="152.24 103.74 149.13 123.59 156.21 123.59 156.55 121.34 152.07 121.34 153.1 114.61 157.07 114.61 157.42 112.37 153.45 112.37 154.48 106.15 158.97 106.15 159.32 103.91 152.24 103.91 152.24 103.74"/>
      </g>
      <g class="cls-9">
        <polygon class="cls-5" points="142.05 103.74 141.71 105.98 144.82 105.98 142.05 123.59 144.82 123.59 147.58 105.98 150.51 105.98 150.86 103.74 142.05 103.74"/>
      </g>
      <g class="cls-3">
        <path class="cls-5" d="M128.07,123.59h2.59c.35-1.73,.52-3.45,.86-5.18,.17-1.73,.52-3.45,.69-5.01,.17-1.73,.35-3.28,.35-5.01l2.24,15.36h2.42l3.11-19.85h-2.59c-.35,1.73-.52,3.28-.69,4.66-.17,1.38-.35,2.42-.35,3.45s-.17,1.9-.35,2.93c0,1.04-.17,2.42-.35,3.97l-2.24-15.02h-2.42l-3.28,19.68Z"/>
      </g>
      <g class="cls-29">
        <polygon class="cls-5" points="122.03 103.74 118.93 123.59 126 123.59 126.35 121.34 121.86 121.34 122.9 114.61 126.87 114.61 127.21 112.37 123.24 112.37 124.28 106.15 128.76 106.15 129.11 103.91 122.03 103.91 122.03 103.74"/>
      </g>
      <g class="cls-27">
        <path class="cls-5" d="M120.13,104.08c-.69-.35-1.55-.52-2.42-.52-.69,0-1.55,.17-2.24,.52-.69,.35-1.38,.69-1.9,1.21-.69,.69-1.21,1.73-1.9,3.11-.52,1.38-1.04,2.93-1.38,4.49-.35,1.73-.52,3.28-.52,4.66,0,1.9,.35,3.45,.69,4.32,.35,.69,.86,1.04,1.55,1.55,.69,.35,1.55,.52,2.42,.52s1.73-.17,2.24-.52l.69-2.59c-.52,.35-1.04,.35-1.55,.52-1.21,0-1.9-.52-2.24-1.21-.35-.86-.52-1.9-.69-3.28,0-1.21,.17-2.24,.35-3.45,.17-1.21,.52-2.24,.86-3.28,.35-1.04,.52-1.55,.86-2.07,.35-.69,.86-1.21,1.55-1.55,.69-.35,1.21-.52,1.73-.52,.69,0,1.21,.17,1.73,.52l.17-2.42Z"/>
      </g>
      <g class="cls-24">
        <polygon class="cls-5" points="103.74 103.74 101.15 103.74 98.04 123.59 100.63 123.59 103.74 103.74"/>
      </g>
      <g class="cls-1">
        <polygon class="cls-5" points="91.13 113.4 92.69 103.74 90.1 103.74 86.99 123.59 89.58 123.59 91.13 113.4"/>
      </g>
      <g class="cls-13">
        <polygon class="cls-5" points="91.13 113.4 93.21 123.59 96.32 123.59 93.73 113.4 99.25 103.74 96.49 103.74 91.13 113.4"/>
      </g>
      <g class="cls-20">
        <path class="cls-5" d="M77.67,120.14l-.35,2.76c.69,.69,1.55,.86,2.76,.86,1.04,0,2.07-.35,2.93-.86,.86-.69,1.55-1.38,1.9-2.42,.52-1.04,.69-2.07,.69-3.11,0-.86-.17-1.73-.52-2.42-.35-.69-.86-1.55-1.55-2.42s-1.21-1.55-1.55-2.07c-.35-.52-.52-1.04-.52-1.55,.17-.87,.52-1.55,1.04-2.07,.52-.52,1.21-.69,1.73-.69,.86,0,1.55,.35,2.07,.86l.52-2.76c-.86-.52-1.73-.69-2.59-.69-1.04,0-1.9,.35-2.76,.69-.86,.52-1.55,1.21-1.9,2.24-.52,.86-.69,2.07-.69,3.28,0,.86,.17,1.73,.52,2.42,.35,.69,.86,1.38,1.55,2.07,.69,.86,1.21,1.55,1.55,2.07,.35,.52,.52,1.21,.52,2.07s-.35,1.55-.86,2.24c-.52,.69-1.21,.86-1.9,.86-1.04-.34-1.9-.69-2.59-1.38"/>
      </g>
      <g class="cls-32">
        <polygon class="cls-5" points="71.98 103.74 68.87 123.59 75.94 123.59 76.29 121.34 71.8 121.34 74.57 103.74 71.98 103.74"/>
      </g>
      <g class="cls-18">
        <path class="cls-5" d="M67.14,104.77c-.52-.86-1.55-1.21-2.93-1.21-.52,0-1.04,0-1.38,.17-1.38,.35-2.59,1.21-3.45,2.93-.86,1.55-1.38,3.28-1.73,5.18-.35,1.55-.52,3.8-.86,6.04v.69c0,.86,.17,1.73,.35,2.59,.35,.86,.69,1.38,1.21,1.9,.69,.52,1.38,.69,2.25,.69,1.21,0,2.42-.35,3.28-1.21,.86-.69,1.55-1.9,2.24-3.11,.52-1.38,1.04-2.93,1.21-4.66,.35-1.73,.52-3.62,.69-5.7v-.69c0-1.38-.34-2.59-.86-3.63m-1.73,4.66v.69c-.17,1.38-.35,2.93-.52,4.66-.35,1.73-.69,3.28-1.21,4.49-.52,1.38-1.21,1.9-2.07,2.07-1.21,0-1.73-.86-1.9-2.59v-.86c0-1.21,.17-2.42,.35-3.62,.17-1.21,.35-2.42,.69-3.8,.35-1.21,.69-2.42,1.21-3.28,.52-.86,1.04-1.38,1.73-1.38s1.04,.17,1.38,.69c.17,.52,.35,1.21,.35,2.24v.69h0Z"/>
      </g>
      <g class="cls-8">
        <polygon class="cls-5" points="57.13 99.25 55.92 98.21 53.68 100.46 51.95 98.21 50.57 99.25 53.16 102.87 57.13 99.25"/>
      </g>
      <g class="cls-11">
        <path class="cls-5" d="M47.12,120.14l-.52,2.76c.69,.69,1.55,.86,2.76,.86,1.04,0,2.07-.35,2.94-.86,.86-.69,1.55-1.38,1.9-2.42,.52-1.04,.69-2.07,.69-3.11,0-.86-.17-1.73-.52-2.42s-.86-1.55-1.55-2.42c-.69-.86-1.21-1.55-1.55-2.07s-.52-1.04-.52-1.55c.17-.87,.52-1.55,1.04-2.07,.52-.52,1.21-.69,1.73-.69,.86,0,1.56,.35,2.07,.86l.52-2.76c-.86-.52-1.73-.69-2.59-.69-1.04,0-1.9,.35-2.76,.69-.86,.52-1.55,1.21-1.9,2.24-.52,.86-.69,2.07-.69,3.28,0,.86,.17,1.73,.52,2.42,.35,.69,.86,1.38,1.55,2.07,.69,.86,1.21,1.55,1.55,2.07,.35,.52,.52,1.21,.52,2.07s-.35,1.55-.86,2.24c-.52,.69-1.21,.86-1.9,.86-.86-.34-1.73-.69-2.42-1.38"/>
      </g>
      <g class="cls-16">
        <path class="cls-4" d="M143.09,13.98c-18.64,0-34,15.19-34,34s15.19,34,34,34,34-15.19,34-34-15.19-34-34-34"/>
      </g>
      <g class="cls-34">
        <path class="cls-33" d="M157.76,33.31l4.66-4.66c-4.83-4.83-11.74-7.94-18.99-7.94-15.02,0-27.27,12.43-27.27,27.27s12.43,27.27,27.27,27.27c7.6,0,14.5-3.11,19.33-8.29l-4.66-4.83c-3.8,3.97-8.98,6.39-14.67,6.39-11.22,0-20.54-9.32-20.54-20.54s9.32-20.54,20.54-20.54c5.35,0,10.53,2.24,14.33,5.87"/>
      </g>
    </g>
  </g>
</svg>