<?xml version="1.0" encoding="utf-8"?>
<!-- Generator: Adobe Illustrator 27.0.0, SVG Export Plug-In . SVG Version: 6.00 Build 0)  -->
<svg version="1.1" id="Layer_1" xmlns="http://www.w3.org/2000/svg" xmlns:xlink="http://www.w3.org/1999/xlink" x="0px" y="0px"
	 viewBox="0 0 380 214" style="enable-background:new 0 0 380 214;" xml:space="preserve">
<style type="text/css">
	.st0{fill:none;}
	.st1{clip-path:url(#SVGID_00000071534924395894934800000008209037972331872897_);}
	.st2{clip-path:url(#SVGID_00000181775245088727134260000015739786099935089041_);}
	.st3{fill:#EB1565;}
	.st4{clip-path:url(#SVGID_00000096039288604136110000000001807043117747333516_);}
	.st5{fill:#FFFFFF;}
	.st6{clip-path:url(#SVGID_00000019648676976070603480000016294828739862435216_);}
	.st7{clip-path:url(#SVGID_00000004538922567782970140000008646478014758585475_);}
	.st8{clip-path:url(#SVGID_00000179603798452822019100000009205368898716589499_);}
	.st9{clip-path:url(#SVGID_00000004537834942695274030000000494787265506837380_);}
	.st10{clip-path:url(#SVGID_00000047025445963485568540000014788815795839490483_);}
	.st11{clip-path:url(#SVGID_00000181071015401758470890000017056548352234932097_);}
	.st12{clip-path:url(#SVGID_00000098904102286160976520000016637490549862961808_);}
	.st13{clip-path:url(#SVGID_00000061472448544215899320000001290601263990825606_);}
	.st14{clip-path:url(#SVGID_00000051358520385464574080000017622168920341169804_);}
	.st15{clip-path:url(#SVGID_00000098903354815205587700000006121104236168645509_);}
	.st16{clip-path:url(#SVGID_00000080923951448248948790000009378788902727603342_);}
	.st17{clip-path:url(#SVGID_00000041981806842572610980000016545672190943281083_);}
	.st18{clip-path:url(#SVGID_00000183206613634701133480000006762487764887890878_);}
	.st19{clip-path:url(#SVGID_00000072964360481362396840000002514402206103761592_);}
	.st20{clip-path:url(#SVGID_00000005951113081827007720000008129090174167628704_);}
	.st21{clip-path:url(#SVGID_00000121258044361039041590000007738950192374127778_);}
	.st22{clip-path:url(#SVGID_00000048463264756810338080000012577084794479983756_);}
	.st23{clip-path:url(#SVGID_00000070107549307437519160000017402572866659124110_);}
	.st24{clip-path:url(#SVGID_00000106838757766800890170000006502081493499973541_);}
	.st25{clip-path:url(#SVGID_00000113352741162845280910000016012732071720387236_);}
	.st26{clip-path:url(#SVGID_00000176024902278994299190000000461370913298486692_);}
	.st27{clip-path:url(#SVGID_00000045585001502437583100000008211874692057969562_);}
	.st28{clip-path:url(#SVGID_00000058579013799808959690000007871102593188817577_);}
	.st29{clip-path:url(#SVGID_00000149383625781681901710000005909797485466488992_);}
	.st30{clip-path:url(#SVGID_00000051368293001476210780000011761422889524508316_);}
	.st31{clip-path:url(#SVGID_00000115500803332322708450000009904903555799574182_);}
</style>
<rect class="st0" width="380" height="214"/>
<g>
	<defs>
		<rect id="SVGID_1_" width="283.8" height="154.7"/>
	</defs>
	<clipPath id="SVGID_00000064332129191651155170000012629849944630492553_">
		<use xlink:href="#SVGID_1_"  style="overflow:visible;"/>
	</clipPath>
	<g style="clip-path:url(#SVGID_00000064332129191651155170000012629849944630492553_);">
		<g>
			<g>
				<defs>
					<rect id="SVGID_00000035500120259215719090000005542771540229191345_" width="283.8" height="154.7"/>
				</defs>
				<clipPath id="SVGID_00000155830260819017702300000011177667251198011044_">
					<use xlink:href="#SVGID_00000035500120259215719090000005542771540229191345_"  style="overflow:visible;"/>
				</clipPath>
				<g style="clip-path:url(#SVGID_00000155830260819017702300000011177667251198011044_);">
					<rect class="st3" width="95.4" height="95.4"/>
				</g>
			</g>
			<g>
				<defs>
					<rect id="SVGID_00000057143402874714770420000006138195829132618171_" width="283.8" height="154.7"/>
				</defs>
				<clipPath id="SVGID_00000026881502246082686240000013203337989224314789_">
					<use xlink:href="#SVGID_00000057143402874714770420000006138195829132618171_"  style="overflow:visible;"/>
				</clipPath>
				<g style="clip-path:url(#SVGID_00000026881502246082686240000013203337989224314789_);">
					<path class="st5" d="M204.7,74.9L204.7,74.9c22.6,0,40.9-18.3,40.9-40.9V20.4h-6.7V34c0,18.8-15.2,34-34,34.2V20.5h-6.7v54.7
						h6.7v-0.3L204.7,74.9L204.7,74.9z"/>
				</g>
			</g>
			<g>
				<defs>
					<rect id="SVGID_00000027573238385165976850000011459015146609843075_" width="283.8" height="154.7"/>
				</defs>
				<clipPath id="SVGID_00000093860307892300710750000011593897453059167393_">
					<use xlink:href="#SVGID_00000027573238385165976850000011459015146609843075_"  style="overflow:visible;"/>
				</clipPath>
				<g style="clip-path:url(#SVGID_00000093860307892300710750000011593897453059167393_);">
					<path class="st5" d="M87.2,7.1v6.7c-11.9,0-21.9,9-23.5,20.4H57C58.7,18.8,71.5,6.9,87.2,7.1"/>
				</g>
			</g>
			<g>
				<defs>
					<rect id="SVGID_00000120545015667578578550000010438940624296322436_" width="283.8" height="154.7"/>
				</defs>
				<clipPath id="SVGID_00000051345435608622245210000014415931300575204233_">
					<use xlink:href="#SVGID_00000120545015667578578550000010438940624296322436_"  style="overflow:visible;"/>
				</clipPath>
				<g style="clip-path:url(#SVGID_00000051345435608622245210000014415931300575204233_);">
					<path class="st5" d="M88.9,27.6v-6.9c-0.5,0-1.2-0.2-1.7-0.2c-9.5,0-17.1,7.6-17.1,17.1c0,3.6,1,6.9,2.9,9.7
						c1.4,2.2,2.2,4.7,2.2,7.4c0,7.4-6,13.5-13.5,13.5s-13.5-6-13.5-13.5h-6.9c0,11.2,9.2,20.5,20.5,20.5s20.5-9.2,20.5-20.5
						c0-4-1.2-7.6-3.3-10.7H79c-0.2-0.3-0.3-0.7-0.7-0.9C77.5,41.6,77,39.9,77,38c0-5.7,4.5-10.2,10.2-10.2
						C87.7,27.5,88.4,27.5,88.9,27.6"/>
				</g>
			</g>
			<g>
				<defs>
					<rect id="SVGID_00000026157435125956888860000016965969337923201967_" width="283.8" height="154.7"/>
				</defs>
				<clipPath id="SVGID_00000001634180988068819120000007296054746212577921_">
					<use xlink:href="#SVGID_00000026157435125956888860000016965969337923201967_"  style="overflow:visible;"/>
				</clipPath>
				<g style="clip-path:url(#SVGID_00000001634180988068819120000007296054746212577921_);">
					<rect x="95.4" class="st5" width="95.4" height="95.4"/>
				</g>
			</g>
			<g>
				<defs>
					<rect id="SVGID_00000023283354959794928110000014317954070377008563_" width="283.8" height="154.7"/>
				</defs>
				<clipPath id="SVGID_00000150070869197161483140000009246868237511619506_">
					<use xlink:href="#SVGID_00000023283354959794928110000014317954070377008563_"  style="overflow:visible;"/>
				</clipPath>
				<g style="clip-path:url(#SVGID_00000150070869197161483140000009246868237511619506_);">
					<polygon class="st5" points="235.3,103.7 232.2,123.6 239.2,123.6 239.6,121.3 235.1,121.3 236.1,114.6 240.1,114.6 
						240.4,112.4 236.5,112.4 237.5,106.2 242,106.2 242.3,103.9 235.3,103.9 					"/>
				</g>
			</g>
			<g>
				<defs>
					<rect id="SVGID_00000125591406775884304750000005831071455695430322_" width="283.8" height="154.7"/>
				</defs>
				<clipPath id="SVGID_00000018916220324209458970000011504788299499772562_">
					<use xlink:href="#SVGID_00000125591406775884304750000005831071455695430322_"  style="overflow:visible;"/>
				</clipPath>
				<g style="clip-path:url(#SVGID_00000018916220324209458970000011504788299499772562_);">
					<path class="st5" d="M229.4,103.7l-2.2,14.2c-0.2,0.9-0.2,1.4-0.4,1.9c-0.2,0.5-0.4,0.9-0.7,1c-0.4,0.2-0.7,0.3-1.2,0.3
						c-0.7,0-1.2-0.3-1.7-0.7l-0.4,2.6c0.5,0.3,1.2,0.5,2.2,0.5c1.2,0,2.2-0.3,2.9-1c0.9-0.9,1.4-2.2,1.7-4.1l2.4-14.8h-2.8
						L229.4,103.7L229.4,103.7L229.4,103.7z"/>
				</g>
			</g>
			<g>
				<defs>
					<rect id="SVGID_00000128474458773495085640000006718167253643159446_" width="283.8" height="154.7"/>
				</defs>
				<clipPath id="SVGID_00000090282815524342294990000011529154196307420085_">
					<use xlink:href="#SVGID_00000128474458773495085640000006718167253643159446_"  style="overflow:visible;"/>
				</clipPath>
				<g style="clip-path:url(#SVGID_00000090282815524342294990000011529154196307420085_);">
					<path class="st5" d="M211.8,123.6h2.6c0.4-1.7,0.5-3.4,0.9-5.2c0.2-1.7,0.5-3.4,0.7-5c0.2-1.7,0.4-3.3,0.4-5l2.2,15.4h2.4
						l3.1-19.8h-2.6c-0.4,1.7-0.5,3.3-0.7,4.7c-0.2,1.4-0.4,2.4-0.4,3.4s-0.2,1.9-0.4,2.9c0,1-0.2,2.4-0.4,4l-2.2-15h-2.4
						L211.8,123.6L211.8,123.6z"/>
				</g>
			</g>
			<g>
				<defs>
					<rect id="SVGID_00000070082967547527624910000003707903955856199816_" width="283.8" height="154.7"/>
				</defs>
				<clipPath id="SVGID_00000166648337235526089020000009241995887823694766_">
					<use xlink:href="#SVGID_00000070082967547527624910000003707903955856199816_"  style="overflow:visible;"/>
				</clipPath>
				<g style="clip-path:url(#SVGID_00000166648337235526089020000009241995887823694766_);">
					<polygon class="st5" points="205.8,103.7 202.6,123.6 209.7,123.6 210.1,121.3 205.6,121.3 206.6,114.6 210.6,114.6 
						210.9,112.4 206.9,112.4 208,106.2 212.5,106.2 212.8,103.9 205.8,103.9 					"/>
				</g>
			</g>
			<g>
				<defs>
					<rect id="SVGID_00000096031553580827899320000010182797478362174614_" width="283.8" height="154.7"/>
				</defs>
				<clipPath id="SVGID_00000024724710836597719720000014467762053365327276_">
					<use xlink:href="#SVGID_00000096031553580827899320000010182797478362174614_"  style="overflow:visible;"/>
				</clipPath>
				<g style="clip-path:url(#SVGID_00000024724710836597719720000014467762053365327276_);">
					<polygon class="st5" points="196.9,103.7 193.8,123.6 200.9,123.6 201.3,121.3 196.8,121.3 199.5,103.7 					"/>
				</g>
			</g>
			<g>
				<defs>
					<rect id="SVGID_00000096764284424224913600000009938225001748799401_" width="283.8" height="154.7"/>
				</defs>
				<clipPath id="SVGID_00000158720712951497518500000012445509634563250109_">
					<use xlink:href="#SVGID_00000096764284424224913600000009938225001748799401_"  style="overflow:visible;"/>
				</clipPath>
				<g style="clip-path:url(#SVGID_00000158720712951497518500000012445509634563250109_);">
					<polygon class="st5" points="187.8,103.7 184.7,123.6 191.8,123.6 192.1,121.3 187.6,121.3 188.7,114.6 192.6,114.6 193,112.4 
						189,112.4 190,106.2 194.5,106.2 194.9,103.9 187.8,103.9 					"/>
				</g>
			</g>
			<g>
				<defs>
					<rect id="SVGID_00000023964725240157385650000007004071842162438574_" width="283.8" height="154.7"/>
				</defs>
				<clipPath id="SVGID_00000149347747997884505370000007412998771268877205_">
					<use xlink:href="#SVGID_00000023964725240157385650000007004071842162438574_"  style="overflow:visible;"/>
				</clipPath>
				<g style="clip-path:url(#SVGID_00000149347747997884505370000007412998771268877205_);">
					<path class="st5" d="M176.9,123.6h2.1l7.1-19.8h-2.4c-0.2,0.5-0.5,1.7-1,3.3s-1,3.1-1.6,4.5c-0.5,1.4-0.9,2.6-1.2,3.8
						c-0.4,1.2-0.7,2.4-1,3.4l0.2-14.8h-2.6L176.9,123.6L176.9,123.6z"/>
				</g>
			</g>
			<g>
				<defs>
					<rect id="SVGID_00000036955263514665152270000000607827110316493204_" width="283.8" height="154.7"/>
				</defs>
				<clipPath id="SVGID_00000036238228357116239790000004713173302927938202_">
					<use xlink:href="#SVGID_00000036955263514665152270000000607827110316493204_"  style="overflow:visible;"/>
				</clipPath>
				<g style="clip-path:url(#SVGID_00000036238228357116239790000004713173302927938202_);">
					<path class="st5" d="M167.1,112.7c0.5-0.7,0.9-1.6,1.2-2.6c0.2-1,0.4-1.9,0.4-2.8c0-1.2-0.4-2.1-0.9-2.8
						c-0.7-0.5-1.6-0.9-2.8-0.9h-3.6l-3.1,19.8h2.6l1.6-9.7l2.1,9.7h2.8l-2.2-9.7C165.9,113.8,166.6,113.4,167.1,112.7 M165.2,111.2
						c-0.5,0.9-1.4,1.4-2.6,1.4l1-6.6c0.7,0,1.4,0.2,1.7,0.3c0.4,0.2,0.5,0.7,0.5,1.6C165.9,109.1,165.7,110.3,165.2,111.2"/>
				</g>
			</g>
			<g>
				<defs>
					<rect id="SVGID_00000139985331149772707650000004481761889729105285_" width="283.8" height="154.7"/>
				</defs>
				<clipPath id="SVGID_00000157991620200445026270000017014903621147989420_">
					<use xlink:href="#SVGID_00000139985331149772707650000004481761889729105285_"  style="overflow:visible;"/>
				</clipPath>
				<g style="clip-path:url(#SVGID_00000157991620200445026270000017014903621147989420_);">
					<polygon class="st5" points="152.2,103.7 149.1,123.6 156.2,123.6 156.6,121.3 152.1,121.3 153.1,114.6 157.1,114.6 
						157.4,112.4 153.4,112.4 154.5,106.2 159,106.2 159.3,103.9 152.2,103.9 					"/>
				</g>
			</g>
			<g>
				<defs>
					<rect id="SVGID_00000177463856898027987280000008666684653911307411_" width="283.8" height="154.7"/>
				</defs>
				<clipPath id="SVGID_00000002356267757657273100000004821476336167051442_">
					<use xlink:href="#SVGID_00000177463856898027987280000008666684653911307411_"  style="overflow:visible;"/>
				</clipPath>
				<g style="clip-path:url(#SVGID_00000002356267757657273100000004821476336167051442_);">
					<polygon class="st5" points="142.1,103.7 141.7,106 144.8,106 142.1,123.6 144.8,123.6 147.6,106 150.5,106 150.9,103.7 					
						"/>
				</g>
			</g>
			<g>
				<defs>
					<rect id="SVGID_00000015356411787197759800000012338041318347338423_" width="283.8" height="154.7"/>
				</defs>
				<clipPath id="SVGID_00000127009761584590076380000000201091638567402160_">
					<use xlink:href="#SVGID_00000015356411787197759800000012338041318347338423_"  style="overflow:visible;"/>
				</clipPath>
				<g style="clip-path:url(#SVGID_00000127009761584590076380000000201091638567402160_);">
					<path class="st5" d="M128.1,123.6h2.6c0.4-1.7,0.5-3.4,0.9-5.2c0.2-1.7,0.5-3.4,0.7-5c0.2-1.7,0.4-3.3,0.4-5l2.2,15.4h2.4
						l3.1-19.8h-2.6c-0.4,1.7-0.5,3.3-0.7,4.7c-0.2,1.4-0.4,2.4-0.4,3.4s-0.2,1.9-0.4,2.9c0,1-0.2,2.4-0.4,4l-2.2-15h-2.4
						L128.1,123.6L128.1,123.6z"/>
				</g>
			</g>
			<g>
				<defs>
					<rect id="SVGID_00000094616627803566334550000002207386484428559494_" width="283.8" height="154.7"/>
				</defs>
				<clipPath id="SVGID_00000007412552380162288200000012941507407086418821_">
					<use xlink:href="#SVGID_00000094616627803566334550000002207386484428559494_"  style="overflow:visible;"/>
				</clipPath>
				<g style="clip-path:url(#SVGID_00000007412552380162288200000012941507407086418821_);">
					<polygon class="st5" points="122,103.7 118.9,123.6 126,123.6 126.3,121.3 121.9,121.3 122.9,114.6 126.9,114.6 127.2,112.4 
						123.2,112.4 124.3,106.2 128.8,106.2 129.1,103.9 122,103.9 					"/>
				</g>
			</g>
			<g>
				<defs>
					<rect id="SVGID_00000092453857385029457830000017890342250600870795_" width="283.8" height="154.7"/>
				</defs>
				<clipPath id="SVGID_00000001625385774122754940000013850344183185136028_">
					<use xlink:href="#SVGID_00000092453857385029457830000017890342250600870795_"  style="overflow:visible;"/>
				</clipPath>
				<g style="clip-path:url(#SVGID_00000001625385774122754940000013850344183185136028_);">
					<path class="st5" d="M120.1,104.1c-0.7-0.3-1.6-0.5-2.4-0.5c-0.7,0-1.6,0.2-2.2,0.5c-0.7,0.3-1.4,0.7-1.9,1.2
						c-0.7,0.7-1.2,1.7-1.9,3.1c-0.5,1.4-1,2.9-1.4,4.5c-0.3,1.7-0.5,3.3-0.5,4.7c0,1.9,0.3,3.4,0.7,4.3c0.3,0.7,0.9,1,1.6,1.6
						c0.7,0.3,1.6,0.5,2.4,0.5s1.7-0.2,2.2-0.5l0.7-2.6c-0.5,0.3-1,0.3-1.6,0.5c-1.2,0-1.9-0.5-2.2-1.2c-0.3-0.9-0.5-1.9-0.7-3.3
						c0-1.2,0.2-2.2,0.3-3.4c0.2-1.2,0.5-2.2,0.9-3.3c0.3-1,0.5-1.6,0.9-2.1c0.3-0.7,0.9-1.2,1.6-1.6c0.7-0.3,1.2-0.5,1.7-0.5
						c0.7,0,1.2,0.2,1.7,0.5L120.1,104.1L120.1,104.1z"/>
				</g>
			</g>
			<g>
				<defs>
					<rect id="SVGID_00000106869563734370304010000017188901226183408779_" width="283.8" height="154.7"/>
				</defs>
				<clipPath id="SVGID_00000137851665628029420050000002546600051686596798_">
					<use xlink:href="#SVGID_00000106869563734370304010000017188901226183408779_"  style="overflow:visible;"/>
				</clipPath>
				<g style="clip-path:url(#SVGID_00000137851665628029420050000002546600051686596798_);">
					<polygon class="st5" points="103.7,103.7 101.2,103.7 98,123.6 100.6,123.6 					"/>
				</g>
			</g>
			<g>
				<defs>
					<rect id="SVGID_00000003086870198037600010000005796002522616223366_" width="283.8" height="154.7"/>
				</defs>
				<clipPath id="SVGID_00000092435480942097603080000010339661180025152155_">
					<use xlink:href="#SVGID_00000003086870198037600010000005796002522616223366_"  style="overflow:visible;"/>
				</clipPath>
				<g style="clip-path:url(#SVGID_00000092435480942097603080000010339661180025152155_);">
					<polygon class="st5" points="91.1,113.4 92.7,103.7 90.1,103.7 87,123.6 89.6,123.6 					"/>
				</g>
			</g>
			<g>
				<defs>
					<rect id="SVGID_00000119079056725663016330000009311862676495430306_" width="283.8" height="154.7"/>
				</defs>
				<clipPath id="SVGID_00000026136666567681578100000017830570196373496468_">
					<use xlink:href="#SVGID_00000119079056725663016330000009311862676495430306_"  style="overflow:visible;"/>
				</clipPath>
				<g style="clip-path:url(#SVGID_00000026136666567681578100000017830570196373496468_);">
					<polygon class="st5" points="91.1,113.4 93.2,123.6 96.3,123.6 93.7,113.4 99.2,103.7 96.5,103.7 					"/>
				</g>
			</g>
			<g>
				<defs>
					<rect id="SVGID_00000158720374280273371800000001375547928496927664_" width="283.8" height="154.7"/>
				</defs>
				<clipPath id="SVGID_00000180368888300763031650000003174151448589284777_">
					<use xlink:href="#SVGID_00000158720374280273371800000001375547928496927664_"  style="overflow:visible;"/>
				</clipPath>
				<g style="clip-path:url(#SVGID_00000180368888300763031650000003174151448589284777_);">
					<path class="st5" d="M77.7,120.1l-0.3,2.8c0.7,0.7,1.6,0.9,2.8,0.9c1,0,2.1-0.3,2.9-0.9c0.9-0.7,1.6-1.4,1.9-2.4
						c0.5-1,0.7-2.1,0.7-3.1c0-0.9-0.2-1.7-0.5-2.4c-0.3-0.7-0.9-1.6-1.6-2.4s-1.2-1.6-1.6-2.1c-0.3-0.5-0.5-1-0.5-1.6
						c0.2-0.9,0.5-1.6,1-2.1c0.5-0.5,1.2-0.7,1.7-0.7c0.9,0,1.6,0.3,2.1,0.9l0.5-2.8c-0.9-0.5-1.7-0.7-2.6-0.7c-1,0-1.9,0.3-2.8,0.7
						c-0.9,0.5-1.6,1.2-1.9,2.2c-0.5,0.9-0.7,2.1-0.7,3.3c0,0.9,0.2,1.7,0.5,2.4c0.3,0.7,0.9,1.4,1.6,2.1c0.7,0.9,1.2,1.6,1.6,2.1
						c0.3,0.5,0.5,1.2,0.5,2.1s-0.3,1.6-0.9,2.2c-0.5,0.7-1.2,0.9-1.9,0.9C79.2,121.2,78.4,120.8,77.7,120.1"/>
				</g>
			</g>
			<g>
				<defs>
					<rect id="SVGID_00000147197277044473939100000003281638682389733760_" width="283.8" height="154.7"/>
				</defs>
				<clipPath id="SVGID_00000103958229710084267540000000386798626721054141_">
					<use xlink:href="#SVGID_00000147197277044473939100000003281638682389733760_"  style="overflow:visible;"/>
				</clipPath>
				<g style="clip-path:url(#SVGID_00000103958229710084267540000000386798626721054141_);">
					<polygon class="st5" points="72,103.7 68.9,123.6 75.9,123.6 76.3,121.3 71.8,121.3 74.6,103.7 					"/>
				</g>
			</g>
			<g>
				<defs>
					<rect id="SVGID_00000070806022259244516340000006581254238407095459_" width="283.8" height="154.7"/>
				</defs>
				<clipPath id="SVGID_00000027589123325386348340000002340288737495828879_">
					<use xlink:href="#SVGID_00000070806022259244516340000006581254238407095459_"  style="overflow:visible;"/>
				</clipPath>
				<g style="clip-path:url(#SVGID_00000027589123325386348340000002340288737495828879_);">
					<path class="st5" d="M67.1,104.8c-0.5-0.9-1.6-1.2-2.9-1.2c-0.5,0-1,0-1.4,0.2c-1.4,0.3-2.6,1.2-3.5,2.9
						c-0.9,1.6-1.4,3.3-1.7,5.2c-0.3,1.6-0.5,3.8-0.9,6v0.7c0,0.9,0.2,1.7,0.3,2.6c0.3,0.9,0.7,1.4,1.2,1.9c0.7,0.5,1.4,0.7,2.2,0.7
						c1.2,0,2.4-0.3,3.3-1.2c0.9-0.7,1.5-1.9,2.2-3.1c0.5-1.4,1-2.9,1.2-4.7c0.3-1.7,0.5-3.6,0.7-5.7v-0.7
						C68,107,67.7,105.8,67.1,104.8 M65.4,109.4v0.7c-0.2,1.4-0.3,2.9-0.5,4.7c-0.3,1.7-0.7,3.3-1.2,4.5c-0.5,1.4-1.2,1.9-2.1,2.1
						c-1.2,0-1.7-0.9-1.9-2.6v-0.9c0-1.2,0.2-2.4,0.3-3.6c0.2-1.2,0.3-2.4,0.7-3.8c0.3-1.2,0.7-2.4,1.2-3.3s1-1.4,1.7-1.4
						c0.7,0,1,0.2,1.4,0.7c0.2,0.5,0.3,1.2,0.3,2.2L65.4,109.4L65.4,109.4L65.4,109.4z"/>
				</g>
			</g>
			<g>
				<defs>
					<rect id="SVGID_00000079458992832053425050000006645328011897201308_" width="283.8" height="154.7"/>
				</defs>
				<clipPath id="SVGID_00000027568016656723705830000007216491877542038706_">
					<use xlink:href="#SVGID_00000079458992832053425050000006645328011897201308_"  style="overflow:visible;"/>
				</clipPath>
				<g style="clip-path:url(#SVGID_00000027568016656723705830000007216491877542038706_);">
					<polygon class="st5" points="57.1,99.2 55.9,98.2 53.7,100.5 52,98.2 50.6,99.2 53.2,102.9 					"/>
				</g>
			</g>
			<g>
				<defs>
					<rect id="SVGID_00000058552489062106847030000000634887784220042933_" width="283.8" height="154.7"/>
				</defs>
				<clipPath id="SVGID_00000119076503934796100210000004909674390400612513_">
					<use xlink:href="#SVGID_00000058552489062106847030000000634887784220042933_"  style="overflow:visible;"/>
				</clipPath>
				<g style="clip-path:url(#SVGID_00000119076503934796100210000004909674390400612513_);">
					<path class="st5" d="M47.1,120.1l-0.5,2.8c0.7,0.7,1.5,0.9,2.8,0.9c1,0,2.1-0.3,2.9-0.9c0.9-0.7,1.5-1.4,1.9-2.4
						c0.5-1,0.7-2.1,0.7-3.1c0-0.9-0.2-1.7-0.5-2.4s-0.9-1.6-1.5-2.4c-0.7-0.9-1.2-1.6-1.5-2.1s-0.5-1-0.5-1.6
						c0.2-0.9,0.5-1.6,1-2.1s1.2-0.7,1.7-0.7c0.9,0,1.6,0.3,2.1,0.9l0.5-2.8c-0.9-0.5-1.7-0.7-2.6-0.7c-1,0-1.9,0.3-2.8,0.7
						c-0.9,0.5-1.5,1.2-1.9,2.2c-0.5,0.9-0.7,2.1-0.7,3.3c0,0.9,0.2,1.7,0.5,2.4c0.3,0.7,0.9,1.4,1.5,2.1c0.7,0.9,1.2,1.6,1.5,2.1
						c0.3,0.5,0.5,1.2,0.5,2.1s-0.3,1.6-0.9,2.2c-0.5,0.7-1.2,0.9-1.9,0.9C48.7,121.2,47.8,120.8,47.1,120.1"/>
				</g>
			</g>
			<g>
				<defs>
					<rect id="SVGID_00000136411017049584719150000013961541598517159823_" width="283.8" height="154.7"/>
				</defs>
				<clipPath id="SVGID_00000142860117125170009390000016677114810956337338_">
					<use xlink:href="#SVGID_00000136411017049584719150000013961541598517159823_"  style="overflow:visible;"/>
				</clipPath>
				<g style="clip-path:url(#SVGID_00000142860117125170009390000016677114810956337338_);">
					<path d="M143.1,14c-18.6,0-34,15.2-34,34s15.2,34,34,34s34-15.2,34-34S161.9,14,143.1,14"/>
				</g>
			</g>
			<g>
				<defs>
					<rect id="SVGID_00000129907814436200782370000001795389366065353898_" width="283.8" height="154.7"/>
				</defs>
				<clipPath id="SVGID_00000026122874085345787030000000221440543320167573_">
					<use xlink:href="#SVGID_00000129907814436200782370000001795389366065353898_"  style="overflow:visible;"/>
				</clipPath>
				<g style="clip-path:url(#SVGID_00000026122874085345787030000000221440543320167573_);">
					<path class="st5" d="M157.8,33.3l4.7-4.7c-4.8-4.8-11.7-7.9-19-7.9c-15,0-27.3,12.4-27.3,27.3s12.4,27.3,27.3,27.3
						c7.6,0,14.5-3.1,19.3-8.3l-4.7-4.8c-3.8,4-9,6.4-14.7,6.4c-11.2,0-20.5-9.3-20.5-20.5s9.3-20.5,20.5-20.5
						C148.8,27.4,154,29.7,157.8,33.3"/>
				</g>
			</g>
		</g>
	</g>
</g>
</svg>
