<?xml version="1.0" encoding="utf-8"?>
<!-- Generator: Adobe Illustrator 27.0.0, SVG Export Plug-In . SVG Version: 6.00 Build 0)  -->
<svg version="1.1" id="Layer_1" xmlns="http://www.w3.org/2000/svg" xmlns:xlink="http://www.w3.org/1999/xlink" x="0px" y="0px"
	 viewBox="0 0 24 30" style="enable-background:new 0 0 24 30;" xml:space="preserve">
<g>
	<path d="M12,8.5c-0.6,0-1,0.4-1,1v3c0,0.6,0.4,1,1,1s1-0.4,1-1v-3C13,8.9,12.6,8.5,12,8.5z"/>
	<path d="M12,3c-4.4,0-8,3.6-8,8v8c0,4.4,3.6,8,8,8s8-3.6,8-8v-8C20,6.6,16.4,3,12,3z M18,19c0,3.3-2.7,6-6,6s-6-2.7-6-6v-8
		c0-3.3,2.7-6,6-6s6,2.7,6,6V19z"/>
</g>
</svg>
